<?xml version="1.0" encoding="UTF-8" standalone="no"?>
<svg xmlns:dc="http://purl.org/dc/elements/1.1/" xmlns:cc="http://creativecommons.org/ns#" xmlns:rdf="http://www.w3.org/1999/02/22-rdf-syntax-ns#" xmlns:svg="http://www.w3.org/2000/svg" xmlns="http://www.w3.org/2000/svg" viewBox="0 0 512 512" height="512" width="512" xml:space="preserve" id="qr-bill-generator" version="1.1">
    <metadata id="metadata8">
        <rdf:RDF>
            <cc:Work rdf:about="">
                <dc:format>image/svg+xml</dc:format>
                <dc:type rdf:resource="http://purl.org/dc/dcmitype/StillImage" />
            </cc:Work>
        </rdf:RDF>
    </metadata>
    <defs id="defs6" />
    <g id="g10">
        <path fill="white" d="M0,128 a128,128 0 0,1 128,-128 l256 0 a128,128 0 0,1 128,128 l0 256 a128,128 0 0,1 -128,128 l-256 0 a128,128 0 0,1 -128,-128 l0 -256"  />
    </g>
    <g transform="translate(24, 24) scale(0.4)">
        <g transform="translate(80,80)"><g transform="translate(440,0) scale(0.4,0.4)"><g transform="" style="fill: rgb(0, 0, 0);">
            <rect width="100" height="100"/>
            </g></g><g transform="translate(560,0) scale(0.4,0.4)"><g transform="" style="fill: rgb(0, 0, 0);">
            <rect width="100" height="100"/>
            </g></g><g transform="translate(600,0) scale(0.4,0.4)"><g transform="" style="fill: rgb(0, 0, 0);">
            <rect width="100" height="100"/>
            </g></g><g transform="translate(320,40) scale(0.4,0.4)"><g transform="" style="fill: rgb(0, 0, 0);">
            <rect width="100" height="100"/>
            </g></g><g transform="translate(360,40) scale(0.4,0.4)"><g transform="" style="fill: rgb(0, 0, 0);">
            <rect width="100" height="100"/>
            </g></g><g transform="translate(480,40) scale(0.4,0.4)"><g transform="" style="fill: rgb(0, 0, 0);">
            <rect width="100" height="100"/>
            </g></g><g transform="translate(600,40) scale(0.4,0.4)"><g transform="" style="fill: rgb(0, 0, 0);">
            <rect width="100" height="100"/>
            </g></g><g transform="translate(440,80) scale(0.4,0.4)"><g transform="" style="fill: rgb(0, 0, 0);">
            <rect width="100" height="100"/>
            </g></g><g transform="translate(600,80) scale(0.4,0.4)"><g transform="" style="fill: rgb(0, 0, 0);">
            <rect width="100" height="100"/>
            </g></g><g transform="translate(360,120) scale(0.4,0.4)"><g transform="" style="fill: rgb(0, 0, 0);">
            <rect width="100" height="100"/>
            </g></g><g transform="translate(440,120) scale(0.4,0.4)"><g transform="" style="fill: rgb(0, 0, 0);">
            <rect width="100" height="100"/>
            </g></g><g transform="translate(480,120) scale(0.4,0.4)"><g transform="" style="fill: rgb(0, 0, 0);">
            <rect width="100" height="100"/>
            </g></g><g transform="translate(560,120) scale(0.4,0.4)"><g transform="" style="fill: rgb(0, 0, 0);">
            <rect width="100" height="100"/>
            </g></g><g transform="translate(320,160) scale(0.4,0.4)"><g transform="" style="fill: rgb(0, 0, 0);">
            <rect width="100" height="100"/>
            </g></g><g transform="translate(360,160) scale(0.4,0.4)"><g transform="" style="fill: rgb(0, 0, 0);">
            <rect width="100" height="100"/>
            </g></g><g transform="translate(440,160) scale(0.4,0.4)"><g transform="" style="fill: rgb(0, 0, 0);">
            <rect width="100" height="100"/>
            </g></g><g transform="translate(520,160) scale(0.4,0.4)"><g transform="" style="fill: rgb(0, 0, 0);">
            <rect width="100" height="100"/>
            </g></g><g transform="translate(560,160) scale(0.4,0.4)"><g transform="" style="fill: rgb(0, 0, 0);">
            <rect width="100" height="100"/>
            </g></g><g transform="translate(600,160) scale(0.4,0.4)"><g transform="" style="fill: rgb(0, 0, 0);">
            <rect width="100" height="100"/>
            </g></g><g transform="translate(640,160) scale(0.4,0.4)"><g transform="" style="fill: rgb(0, 0, 0);">
            <rect width="100" height="100"/>
            </g></g><g transform="translate(360,200) scale(0.4,0.4)"><g transform="" style="fill: rgb(0, 0, 0);">
            <rect width="100" height="100"/>
            </g></g><g transform="translate(400,200) scale(0.4,0.4)"><g transform="" style="fill: rgb(0, 0, 0);">
            <rect width="100" height="100"/>
            </g></g><g transform="translate(440,200) scale(0.4,0.4)"><g transform="" style="fill: rgb(0, 0, 0);">
            <rect width="100" height="100"/>
            </g></g><g transform="translate(520,200) scale(0.4,0.4)"><g transform="" style="fill: rgb(0, 0, 0);">
            <rect width="100" height="100"/>
            </g></g><g transform="translate(600,200) scale(0.4,0.4)"><g transform="" style="fill: rgb(0, 0, 0);">
            <rect width="100" height="100"/>
            </g></g><g transform="translate(640,200) scale(0.4,0.4)"><g transform="" style="fill: rgb(0, 0, 0);">
            <rect width="100" height="100"/>
            </g></g><g transform="translate(320,240) scale(0.4,0.4)"><g transform="" style="fill: rgb(0, 0, 0);">
            <rect width="100" height="100"/>
            </g></g><g transform="translate(400,240) scale(0.4,0.4)"><g transform="" style="fill: rgb(0, 0, 0);">
            <rect width="100" height="100"/>
            </g></g><g transform="translate(480,240) scale(0.4,0.4)"><g transform="" style="fill: rgb(0, 0, 0);">
            <rect width="100" height="100"/>
            </g></g><g transform="translate(560,240) scale(0.4,0.4)"><g transform="" style="fill: rgb(0, 0, 0);">
            <rect width="100" height="100"/>
            </g></g><g transform="translate(640,240) scale(0.4,0.4)"><g transform="" style="fill: rgb(0, 0, 0);">
            <rect width="100" height="100"/>
            </g></g><g transform="translate(400,280) scale(0.4,0.4)"><g transform="" style="fill: rgb(0, 0, 0);">
            <rect width="100" height="100"/>
            </g></g><g transform="translate(440,280) scale(0.4,0.4)"><g transform="" style="fill: rgb(0, 0, 0);">
            <rect width="100" height="100"/>
            </g></g><g transform="translate(480,280) scale(0.4,0.4)"><g transform="" style="fill: rgb(0, 0, 0);">
            <rect width="100" height="100"/>
            </g></g><g transform="translate(520,280) scale(0.4,0.4)"><g transform="" style="fill: rgb(0, 0, 0);">
            <rect width="100" height="100"/>
            </g></g><g transform="translate(600,280) scale(0.4,0.4)"><g transform="" style="fill: rgb(0, 0, 0);">
            <rect width="100" height="100"/>
            </g></g><g transform="translate(640,280) scale(0.4,0.4)"><g transform="" style="fill: rgb(0, 0, 0);">
            <rect width="100" height="100"/>
            </g></g><g transform="translate(0,320) scale(0.4,0.4)"><g transform="" style="fill: rgb(0, 0, 0);">
            <rect width="100" height="100"/>
            </g></g><g transform="translate(80,320) scale(0.4,0.4)"><g transform="" style="fill: rgb(0, 0, 0);">
            <rect width="100" height="100"/>
            </g></g><g transform="translate(160,320) scale(0.4,0.4)"><g transform="" style="fill: rgb(0, 0, 0);">
            <rect width="100" height="100"/>
            </g></g><g transform="translate(240,320) scale(0.4,0.4)"><g transform="" style="fill: rgb(0, 0, 0);">
            <rect width="100" height="100"/>
            </g></g><g transform="translate(360,320) scale(0.4,0.4)"><g transform="" style="fill: rgb(0, 0, 0);">
            <rect width="100" height="100"/>
            </g></g><g transform="translate(440,320) scale(0.4,0.4)"><g transform="" style="fill: rgb(0, 0, 0);">
            <rect width="100" height="100"/>
            </g></g><g transform="translate(560,320) scale(0.4,0.4)"><g transform="" style="fill: rgb(0, 0, 0);">
            <rect width="100" height="100"/>
            </g></g><g transform="translate(800,320) scale(0.4,0.4)"><g transform="" style="fill: rgb(0, 0, 0);">
            <rect width="100" height="100"/>
            </g></g><g transform="translate(920,320) scale(0.4,0.4)"><g transform="" style="fill: rgb(0, 0, 0);">
            <rect width="100" height="100"/>
            </g></g><g transform="translate(40,360) scale(0.4,0.4)"><g transform="" style="fill: rgb(0, 0, 0);">
            <rect width="100" height="100"/>
            </g></g><g transform="translate(120,360) scale(0.4,0.4)"><g transform="" style="fill: rgb(0, 0, 0);">
            <rect width="100" height="100"/>
            </g></g><g transform="translate(320,360) scale(0.4,0.4)"><g transform="" style="fill: rgb(0, 0, 0);">
            <rect width="100" height="100"/>
            </g></g><g transform="translate(360,360) scale(0.4,0.4)"><g transform="" style="fill: rgb(0, 0, 0);">
            <rect width="100" height="100"/>
            </g></g><g transform="translate(440,360) scale(0.4,0.4)"><g transform="" style="fill: rgb(0, 0, 0);">
            <rect width="100" height="100"/>
            </g></g><g transform="translate(640,360) scale(0.4,0.4)"><g transform="" style="fill: rgb(0, 0, 0);">
            <rect width="100" height="100"/>
            </g></g><g transform="translate(720,360) scale(0.4,0.4)"><g transform="" style="fill: rgb(0, 0, 0);">
            <rect width="100" height="100"/>
            </g></g><g transform="translate(960,360) scale(0.4,0.4)"><g transform="" style="fill: rgb(0, 0, 0);">
            <rect width="100" height="100"/>
            </g></g><g transform="translate(80,400) scale(0.4,0.4)"><g transform="" style="fill: rgb(0, 0, 0);">
            <rect width="100" height="100"/>
            </g></g><g transform="translate(120,400) scale(0.4,0.4)"><g transform="" style="fill: rgb(0, 0, 0);">
            <rect width="100" height="100"/>
            </g></g><g transform="translate(160,400) scale(0.4,0.4)"><g transform="" style="fill: rgb(0, 0, 0);">
            <rect width="100" height="100"/>
            </g></g><g transform="translate(200,400) scale(0.4,0.4)"><g transform="" style="fill: rgb(0, 0, 0);">
            <rect width="100" height="100"/>
            </g></g><g transform="translate(240,400) scale(0.4,0.4)"><g transform="" style="fill: rgb(0, 0, 0);">
            <rect width="100" height="100"/>
            </g></g><g transform="translate(320,400) scale(0.4,0.4)"><g transform="" style="fill: rgb(0, 0, 0);">
            <rect width="100" height="100"/>
            </g></g><g transform="translate(360,400) scale(0.4,0.4)"><g transform="" style="fill: rgb(0, 0, 0);">
            <rect width="100" height="100"/>
            </g></g><g transform="translate(440,400) scale(0.4,0.4)"><g transform="" style="fill: rgb(0, 0, 0);">
            <rect width="100" height="100"/>
            </g></g><g transform="translate(480,400) scale(0.4,0.4)"><g transform="" style="fill: rgb(0, 0, 0);">
            <rect width="100" height="100"/>
            </g></g><g transform="translate(520,400) scale(0.4,0.4)"><g transform="" style="fill: rgb(0, 0, 0);">
            <rect width="100" height="100"/>
            </g></g><g transform="translate(640,400) scale(0.4,0.4)"><g transform="" style="fill: rgb(0, 0, 0);">
            <rect width="100" height="100"/>
            </g></g><g transform="translate(720,400) scale(0.4,0.4)"><g transform="" style="fill: rgb(0, 0, 0);">
            <rect width="100" height="100"/>
            </g></g><g transform="translate(760,400) scale(0.4,0.4)"><g transform="" style="fill: rgb(0, 0, 0);">
            <rect width="100" height="100"/>
            </g></g><g transform="translate(800,400) scale(0.4,0.4)"><g transform="" style="fill: rgb(0, 0, 0);">
            <rect width="100" height="100"/>
            </g></g><g transform="translate(880,400) scale(0.4,0.4)"><g transform="" style="fill: rgb(0, 0, 0);">
            <rect width="100" height="100"/>
            </g></g><g transform="translate(920,400) scale(0.4,0.4)"><g transform="" style="fill: rgb(0, 0, 0);">
            <rect width="100" height="100"/>
            </g></g><g transform="translate(960,400) scale(0.4,0.4)"><g transform="" style="fill: rgb(0, 0, 0);">
            <rect width="100" height="100"/>
            </g></g><g transform="translate(0,440) scale(0.4,0.4)"><g transform="" style="fill: rgb(0, 0, 0);">
            <rect width="100" height="100"/>
            </g></g><g transform="translate(40,440) scale(0.4,0.4)"><g transform="" style="fill: rgb(0, 0, 0);">
            <rect width="100" height="100"/>
            </g></g><g transform="translate(120,440) scale(0.4,0.4)"><g transform="" style="fill: rgb(0, 0, 0);">
            <rect width="100" height="100"/>
            </g></g><g transform="translate(160,440) scale(0.4,0.4)"><g transform="" style="fill: rgb(0, 0, 0);">
            <rect width="100" height="100"/>
            </g></g><g transform="translate(200,440) scale(0.4,0.4)"><g transform="" style="fill: rgb(0, 0, 0);">
            <rect width="100" height="100"/>
            </g></g><g transform="translate(320,440) scale(0.4,0.4)"><g transform="" style="fill: rgb(0, 0, 0);">
            <rect width="100" height="100"/>
            </g></g><g transform="translate(680,440) scale(0.4,0.4)"><g transform="" style="fill: rgb(0, 0, 0);">
            <rect width="100" height="100"/>
            </g></g><g transform="translate(720,440) scale(0.4,0.4)"><g transform="" style="fill: rgb(0, 0, 0);">
            <rect width="100" height="100"/>
            </g></g><g transform="translate(760,440) scale(0.4,0.4)"><g transform="" style="fill: rgb(0, 0, 0);">
            <rect width="100" height="100"/>
            </g></g><g transform="translate(920,440) scale(0.4,0.4)"><g transform="" style="fill: rgb(0, 0, 0);">
            <rect width="100" height="100"/>
            </g></g><g transform="translate(40,480) scale(0.4,0.4)"><g transform="" style="fill: rgb(0, 0, 0);">
            <rect width="100" height="100"/>
            </g></g><g transform="translate(240,480) scale(0.4,0.4)"><g transform="" style="fill: rgb(0, 0, 0);">
            <rect width="100" height="100"/>
            </g></g><g transform="translate(280,480) scale(0.4,0.4)"><g transform="" style="fill: rgb(0, 0, 0);">
            <rect width="100" height="100"/>
            </g></g><g transform="translate(480,480) scale(0.4,0.4)"><g transform="" style="fill: rgb(0, 0, 0);">
            <rect width="100" height="100"/>
            </g></g><g transform="translate(640,480) scale(0.4,0.4)"><g transform="" style="fill: rgb(0, 0, 0);">
            <rect width="100" height="100"/>
            </g></g><g transform="translate(720,480) scale(0.4,0.4)"><g transform="" style="fill: rgb(0, 0, 0);">
            <rect width="100" height="100"/>
            </g></g><g transform="translate(760,480) scale(0.4,0.4)"><g transform="" style="fill: rgb(0, 0, 0);">
            <rect width="100" height="100"/>
            </g></g><g transform="translate(840,480) scale(0.4,0.4)"><g transform="" style="fill: rgb(0, 0, 0);">
            <rect width="100" height="100"/>
            </g></g><g transform="translate(920,480) scale(0.4,0.4)"><g transform="" style="fill: rgb(0, 0, 0);">
            <rect width="100" height="100"/>
            </g></g><g transform="translate(960,480) scale(0.4,0.4)"><g transform="" style="fill: rgb(0, 0, 0);">
            <rect width="100" height="100"/>
            </g></g><g transform="translate(120,520) scale(0.4,0.4)"><g transform="" style="fill: rgb(0, 0, 0);">
            <rect width="100" height="100"/>
            </g></g><g transform="translate(200,520) scale(0.4,0.4)"><g transform="" style="fill: rgb(0, 0, 0);">
            <rect width="100" height="100"/>
            </g></g><g transform="translate(360,520) scale(0.4,0.4)"><g transform="" style="fill: rgb(0, 0, 0);">
            <rect width="100" height="100"/>
            </g></g><g transform="translate(440,520) scale(0.4,0.4)"><g transform="" style="fill: rgb(0, 0, 0);">
            <rect width="100" height="100"/>
            </g></g><g transform="translate(480,520) scale(0.4,0.4)"><g transform="" style="fill: rgb(0, 0, 0);">
            <rect width="100" height="100"/>
            </g></g><g transform="translate(520,520) scale(0.4,0.4)"><g transform="" style="fill: rgb(0, 0, 0);">
            <rect width="100" height="100"/>
            </g></g><g transform="translate(640,520) scale(0.4,0.4)"><g transform="" style="fill: rgb(0, 0, 0);">
            <rect width="100" height="100"/>
            </g></g><g transform="translate(680,520) scale(0.4,0.4)"><g transform="" style="fill: rgb(0, 0, 0);">
            <rect width="100" height="100"/>
            </g></g><g transform="translate(720,520) scale(0.4,0.4)"><g transform="" style="fill: rgb(0, 0, 0);">
            <rect width="100" height="100"/>
            </g></g><g transform="translate(840,520) scale(0.4,0.4)"><g transform="" style="fill: rgb(0, 0, 0);">
            <rect width="100" height="100"/>
            </g></g><g transform="translate(960,520) scale(0.4,0.4)"><g transform="" style="fill: rgb(0, 0, 0);">
            <rect width="100" height="100"/>
            </g></g><g transform="translate(0,560) scale(0.4,0.4)"><g transform="" style="fill: rgb(0, 0, 0);">
            <rect width="100" height="100"/>
            </g></g><g transform="translate(120,560) scale(0.4,0.4)"><g transform="" style="fill: rgb(0, 0, 0);">
            <rect width="100" height="100"/>
            </g></g><g transform="translate(240,560) scale(0.4,0.4)"><g transform="" style="fill: rgb(0, 0, 0);">
            <rect width="100" height="100"/>
            </g></g><g transform="translate(280,560) scale(0.4,0.4)"><g transform="" style="fill: rgb(0, 0, 0);">
            <rect width="100" height="100"/>
            </g></g><g transform="translate(360,560) scale(0.4,0.4)"><g transform="" style="fill: rgb(0, 0, 0);">
            <rect width="100" height="100"/>
            </g></g><g transform="translate(400,560) scale(0.4,0.4)"><g transform="" style="fill: rgb(0, 0, 0);">
            <rect width="100" height="100"/>
            </g></g><g transform="translate(440,560) scale(0.4,0.4)"><g transform="" style="fill: rgb(0, 0, 0);">
            <rect width="100" height="100"/>
            </g></g><g transform="translate(480,560) scale(0.4,0.4)"><g transform="" style="fill: rgb(0, 0, 0);">
            <rect width="100" height="100"/>
            </g></g><g transform="translate(560,560) scale(0.4,0.4)"><g transform="" style="fill: rgb(0, 0, 0);">
            <rect width="100" height="100"/>
            </g></g><g transform="translate(680,560) scale(0.4,0.4)"><g transform="" style="fill: rgb(0, 0, 0);">
            <rect width="100" height="100"/>
            </g></g><g transform="translate(760,560) scale(0.4,0.4)"><g transform="" style="fill: rgb(0, 0, 0);">
            <rect width="100" height="100"/>
            </g></g><g transform="translate(880,560) scale(0.4,0.4)"><g transform="" style="fill: rgb(0, 0, 0);">
            <rect width="100" height="100"/>
            </g></g><g transform="translate(920,560) scale(0.4,0.4)"><g transform="" style="fill: rgb(0, 0, 0);">
            <rect width="100" height="100"/>
            </g></g><g transform="translate(960,560) scale(0.4,0.4)"><g transform="" style="fill: rgb(0, 0, 0);">
            <rect width="100" height="100"/>
            </g></g><g transform="translate(40,600) scale(0.4,0.4)"><g transform="" style="fill: rgb(0, 0, 0);">
            <rect width="100" height="100"/>
            </g></g><g transform="translate(80,600) scale(0.4,0.4)"><g transform="" style="fill: rgb(0, 0, 0);">
            <rect width="100" height="100"/>
            </g></g><g transform="translate(120,600) scale(0.4,0.4)"><g transform="" style="fill: rgb(0, 0, 0);">
            <rect width="100" height="100"/>
            </g></g><g transform="translate(160,600) scale(0.4,0.4)"><g transform="" style="fill: rgb(0, 0, 0);">
            <rect width="100" height="100"/>
            </g></g><g transform="translate(200,600) scale(0.4,0.4)"><g transform="" style="fill: rgb(0, 0, 0);">
            <rect width="100" height="100"/>
            </g></g><g transform="translate(280,600) scale(0.4,0.4)"><g transform="" style="fill: rgb(0, 0, 0);">
            <rect width="100" height="100"/>
            </g></g><g transform="translate(360,600) scale(0.4,0.4)"><g transform="" style="fill: rgb(0, 0, 0);">
            <rect width="100" height="100"/>
            </g></g><g transform="translate(480,600) scale(0.4,0.4)"><g transform="" style="fill: rgb(0, 0, 0);">
            <rect width="100" height="100"/>
            </g></g><g transform="translate(520,600) scale(0.4,0.4)"><g transform="" style="fill: rgb(0, 0, 0);">
            <rect width="100" height="100"/>
            </g></g><g transform="translate(560,600) scale(0.4,0.4)"><g transform="" style="fill: rgb(0, 0, 0);">
            <rect width="100" height="100"/>
            </g></g><g transform="translate(680,600) scale(0.4,0.4)"><g transform="" style="fill: rgb(0, 0, 0);">
            <rect width="100" height="100"/>
            </g></g><g transform="translate(720,600) scale(0.4,0.4)"><g transform="" style="fill: rgb(0, 0, 0);">
            <rect width="100" height="100"/>
            </g></g><g transform="translate(800,600) scale(0.4,0.4)"><g transform="" style="fill: rgb(0, 0, 0);">
            <rect width="100" height="100"/>
            </g></g><g transform="translate(920,600) scale(0.4,0.4)"><g transform="" style="fill: rgb(0, 0, 0);">
            <rect width="100" height="100"/>
            </g></g><g transform="translate(0,640) scale(0.4,0.4)"><g transform="" style="fill: rgb(0, 0, 0);">
            <rect width="100" height="100"/>
            </g></g><g transform="translate(120,640) scale(0.4,0.4)"><g transform="" style="fill: rgb(0, 0, 0);">
            <rect width="100" height="100"/>
            </g></g><g transform="translate(160,640) scale(0.4,0.4)"><g transform="" style="fill: rgb(0, 0, 0);">
            <rect width="100" height="100"/>
            </g></g><g transform="translate(240,640) scale(0.4,0.4)"><g transform="" style="fill: rgb(0, 0, 0);">
            <rect width="100" height="100"/>
            </g></g><g transform="translate(280,640) scale(0.4,0.4)"><g transform="" style="fill: rgb(0, 0, 0);">
            <rect width="100" height="100"/>
            </g></g><g transform="translate(440,640) scale(0.4,0.4)"><g transform="" style="fill: rgb(0, 0, 0);">
            <rect width="100" height="100"/>
            </g></g><g transform="translate(560,640) scale(0.4,0.4)"><g transform="" style="fill: rgb(0, 0, 0);">
            <rect width="100" height="100"/>
            </g></g><g transform="translate(640,640) scale(0.4,0.4)"><g transform="" style="fill: rgb(0, 0, 0);">
            <rect width="100" height="100"/>
            </g></g><g transform="translate(680,640) scale(0.4,0.4)"><g transform="" style="fill: rgb(0, 0, 0);">
            <rect width="100" height="100"/>
            </g></g><g transform="translate(720,640) scale(0.4,0.4)"><g transform="" style="fill: rgb(0, 0, 0);">
            <rect width="100" height="100"/>
            </g></g><g transform="translate(760,640) scale(0.4,0.4)"><g transform="" style="fill: rgb(0, 0, 0);">
            <rect width="100" height="100"/>
            </g></g><g transform="translate(800,640) scale(0.4,0.4)"><g transform="" style="fill: rgb(0, 0, 0);">
            <rect width="100" height="100"/>
            </g></g><g transform="translate(840,640) scale(0.4,0.4)"><g transform="" style="fill: rgb(0, 0, 0);">
            <rect width="100" height="100"/>
            </g></g><g transform="translate(320,680) scale(0.4,0.4)"><g transform="" style="fill: rgb(0, 0, 0);">
            <rect width="100" height="100"/>
            </g></g><g transform="translate(360,680) scale(0.4,0.4)"><g transform="" style="fill: rgb(0, 0, 0);">
            <rect width="100" height="100"/>
            </g></g><g transform="translate(440,680) scale(0.4,0.4)"><g transform="" style="fill: rgb(0, 0, 0);">
            <rect width="100" height="100"/>
            </g></g><g transform="translate(560,680) scale(0.4,0.4)"><g transform="" style="fill: rgb(0, 0, 0);">
            <rect width="100" height="100"/>
            </g></g><g transform="translate(600,680) scale(0.4,0.4)"><g transform="" style="fill: rgb(0, 0, 0);">
            <rect width="100" height="100"/>
            </g></g><g transform="translate(640,680) scale(0.4,0.4)"><g transform="" style="fill: rgb(0, 0, 0);">
            <rect width="100" height="100"/>
            </g></g><g transform="translate(800,680) scale(0.4,0.4)"><g transform="" style="fill: rgb(0, 0, 0);">
            <rect width="100" height="100"/>
            </g></g><g transform="translate(840,680) scale(0.4,0.4)"><g transform="" style="fill: rgb(0, 0, 0);">
            <rect width="100" height="100"/>
            </g></g><g transform="translate(920,680) scale(0.4,0.4)"><g transform="" style="fill: rgb(0, 0, 0);">
            <rect width="100" height="100"/>
            </g></g><g transform="translate(960,680) scale(0.4,0.4)"><g transform="" style="fill: rgb(0, 0, 0);">
            <rect width="100" height="100"/>
            </g></g><g transform="translate(360,720) scale(0.4,0.4)"><g transform="" style="fill: rgb(0, 0, 0);">
            <rect width="100" height="100"/>
            </g></g><g transform="translate(520,720) scale(0.4,0.4)"><g transform="" style="fill: rgb(0, 0, 0);">
            <rect width="100" height="100"/>
            </g></g><g transform="translate(600,720) scale(0.4,0.4)"><g transform="" style="fill: rgb(0, 0, 0);">
            <rect width="100" height="100"/>
            </g></g><g transform="translate(640,720) scale(0.4,0.4)"><g transform="" style="fill: rgb(0, 0, 0);">
            <rect width="100" height="100"/>
            </g></g><g transform="translate(720,720) scale(0.4,0.4)"><g transform="" style="fill: rgb(0, 0, 0);">
            <rect width="100" height="100"/>
            </g></g><g transform="translate(800,720) scale(0.4,0.4)"><g transform="" style="fill: rgb(0, 0, 0);">
            <rect width="100" height="100"/>
            </g></g><g transform="translate(840,720) scale(0.4,0.4)"><g transform="" style="fill: rgb(0, 0, 0);">
            <rect width="100" height="100"/>
            </g></g><g transform="translate(920,720) scale(0.4,0.4)"><g transform="" style="fill: rgb(0, 0, 0);">
            <rect width="100" height="100"/>
            </g></g><g transform="translate(960,720) scale(0.4,0.4)"><g transform="" style="fill: rgb(0, 0, 0);">
            <rect width="100" height="100"/>
            </g></g><g transform="translate(400,760) scale(0.4,0.4)"><g transform="" style="fill: rgb(0, 0, 0);">
            <rect width="100" height="100"/>
            </g></g><g transform="translate(440,760) scale(0.4,0.4)"><g transform="" style="fill: rgb(0, 0, 0);">
            <rect width="100" height="100"/>
            </g></g><g transform="translate(640,760) scale(0.4,0.4)"><g transform="" style="fill: rgb(0, 0, 0);">
            <rect width="100" height="100"/>
            </g></g><g transform="translate(800,760) scale(0.4,0.4)"><g transform="" style="fill: rgb(0, 0, 0);">
            <rect width="100" height="100"/>
            </g></g><g transform="translate(840,760) scale(0.4,0.4)"><g transform="" style="fill: rgb(0, 0, 0);">
            <rect width="100" height="100"/>
            </g></g><g transform="translate(960,760) scale(0.4,0.4)"><g transform="" style="fill: rgb(0, 0, 0);">
            <rect width="100" height="100"/>
            </g></g><g transform="translate(320,800) scale(0.4,0.4)"><g transform="" style="fill: rgb(0, 0, 0);">
            <rect width="100" height="100"/>
            </g></g><g transform="translate(400,800) scale(0.4,0.4)"><g transform="" style="fill: rgb(0, 0, 0);">
            <rect width="100" height="100"/>
            </g></g><g transform="translate(480,800) scale(0.4,0.4)"><g transform="" style="fill: rgb(0, 0, 0);">
            <rect width="100" height="100"/>
            </g></g><g transform="translate(640,800) scale(0.4,0.4)"><g transform="" style="fill: rgb(0, 0, 0);">
            <rect width="100" height="100"/>
            </g></g><g transform="translate(680,800) scale(0.4,0.4)"><g transform="" style="fill: rgb(0, 0, 0);">
            <rect width="100" height="100"/>
            </g></g><g transform="translate(720,800) scale(0.4,0.4)"><g transform="" style="fill: rgb(0, 0, 0);">
            <rect width="100" height="100"/>
            </g></g><g transform="translate(760,800) scale(0.4,0.4)"><g transform="" style="fill: rgb(0, 0, 0);">
            <rect width="100" height="100"/>
            </g></g><g transform="translate(800,800) scale(0.4,0.4)"><g transform="" style="fill: rgb(0, 0, 0);">
            <rect width="100" height="100"/>
            </g></g><g transform="translate(840,800) scale(0.4,0.4)"><g transform="" style="fill: rgb(0, 0, 0);">
            <rect width="100" height="100"/>
            </g></g><g transform="translate(960,800) scale(0.4,0.4)"><g transform="" style="fill: rgb(0, 0, 0);">
            <rect width="100" height="100"/>
            </g></g><g transform="translate(360,840) scale(0.4,0.4)"><g transform="" style="fill: rgb(0, 0, 0);">
            <rect width="100" height="100"/>
            </g></g><g transform="translate(440,840) scale(0.4,0.4)"><g transform="" style="fill: rgb(0, 0, 0);">
            <rect width="100" height="100"/>
            </g></g><g transform="translate(480,840) scale(0.4,0.4)"><g transform="" style="fill: rgb(0, 0, 0);">
            <rect width="100" height="100"/>
            </g></g><g transform="translate(520,840) scale(0.4,0.4)"><g transform="" style="fill: rgb(0, 0, 0);">
            <rect width="100" height="100"/>
            </g></g><g transform="translate(760,840) scale(0.4,0.4)"><g transform="" style="fill: rgb(0, 0, 0);">
            <rect width="100" height="100"/>
            </g></g><g transform="translate(800,840) scale(0.4,0.4)"><g transform="" style="fill: rgb(0, 0, 0);">
            <rect width="100" height="100"/>
            </g></g><g transform="translate(840,840) scale(0.4,0.4)"><g transform="" style="fill: rgb(0, 0, 0);">
            <rect width="100" height="100"/>
            </g></g><g transform="translate(880,840) scale(0.4,0.4)"><g transform="" style="fill: rgb(0, 0, 0);">
            <rect width="100" height="100"/>
            </g></g><g transform="translate(320,880) scale(0.4,0.4)"><g transform="" style="fill: rgb(0, 0, 0);">
            <rect width="100" height="100"/>
            </g></g><g transform="translate(440,880) scale(0.4,0.4)"><g transform="" style="fill: rgb(0, 0, 0);">
            <rect width="100" height="100"/>
            </g></g><g transform="translate(480,880) scale(0.4,0.4)"><g transform="" style="fill: rgb(0, 0, 0);">
            <rect width="100" height="100"/>
            </g></g><g transform="translate(560,880) scale(0.4,0.4)"><g transform="" style="fill: rgb(0, 0, 0);">
            <rect width="100" height="100"/>
            </g></g><g transform="translate(600,880) scale(0.4,0.4)"><g transform="" style="fill: rgb(0, 0, 0);">
            <rect width="100" height="100"/>
            </g></g><g transform="translate(640,880) scale(0.4,0.4)"><g transform="" style="fill: rgb(0, 0, 0);">
            <rect width="100" height="100"/>
            </g></g><g transform="translate(800,880) scale(0.4,0.4)"><g transform="" style="fill: rgb(0, 0, 0);">
            <rect width="100" height="100"/>
            </g></g><g transform="translate(960,880) scale(0.4,0.4)"><g transform="" style="fill: rgb(0, 0, 0);">
            <rect width="100" height="100"/>
            </g></g><g transform="translate(360,920) scale(0.4,0.4)"><g transform="" style="fill: rgb(0, 0, 0);">
            <rect width="100" height="100"/>
            </g></g><g transform="translate(400,920) scale(0.4,0.4)"><g transform="" style="fill: rgb(0, 0, 0);">
            <rect width="100" height="100"/>
            </g></g><g transform="translate(480,920) scale(0.4,0.4)"><g transform="" style="fill: rgb(0, 0, 0);">
            <rect width="100" height="100"/>
            </g></g><g transform="translate(520,920) scale(0.4,0.4)"><g transform="" style="fill: rgb(0, 0, 0);">
            <rect width="100" height="100"/>
            </g></g><g transform="translate(560,920) scale(0.4,0.4)"><g transform="" style="fill: rgb(0, 0, 0);">
            <rect width="100" height="100"/>
            </g></g><g transform="translate(640,920) scale(0.4,0.4)"><g transform="" style="fill: rgb(0, 0, 0);">
            <rect width="100" height="100"/>
            </g></g><g transform="translate(720,920) scale(0.4,0.4)"><g transform="" style="fill: rgb(0, 0, 0);">
            <rect width="100" height="100"/>
            </g></g><g transform="translate(800,920) scale(0.4,0.4)"><g transform="" style="fill: rgb(0, 0, 0);">
            <rect width="100" height="100"/>
            </g></g><g transform="translate(840,920) scale(0.4,0.4)"><g transform="" style="fill: rgb(0, 0, 0);">
            <rect width="100" height="100"/>
            </g></g><g transform="translate(920,920) scale(0.4,0.4)"><g transform="" style="fill: rgb(0, 0, 0);">
            <rect width="100" height="100"/>
            </g></g><g transform="translate(320,960) scale(0.4,0.4)"><g transform="" style="fill: rgb(0, 0, 0);">
            <rect width="100" height="100"/>
            </g></g><g transform="translate(440,960) scale(0.4,0.4)"><g transform="" style="fill: rgb(0, 0, 0);">
            <rect width="100" height="100"/>
            </g></g><g transform="translate(560,960) scale(0.4,0.4)"><g transform="" style="fill: rgb(0, 0, 0);">
            <rect width="100" height="100"/>
            </g></g><g transform="translate(600,960) scale(0.4,0.4)"><g transform="" style="fill: rgb(0, 0, 0);">
            <rect width="100" height="100"/>
            </g></g><g transform="translate(640,960) scale(0.4,0.4)"><g transform="" style="fill: rgb(0, 0, 0);">
            <rect width="100" height="100"/>
            </g></g><g transform="translate(720,960) scale(0.4,0.4)"><g transform="" style="fill: rgb(0, 0, 0);">
            <rect width="100" height="100"/>
            </g></g><g transform="translate(760,960) scale(0.4,0.4)"><g transform="" style="fill: rgb(0, 0, 0);">
            <rect width="100" height="100"/>
            </g></g><g transform="translate(920,960) scale(0.4,0.4)"><g transform="" style="fill: rgb(0, 0, 0);">
            <rect width="100" height="100"/>
            </g></g><g transform="translate(960,960) scale(0.4,0.4)"><g transform="" style="fill: rgb(0, 0, 0);">
            <rect width="100" height="100"/>
            </g></g><g transform="translate(0,0) scale(2.8, 2.8)"><g transform="" style="fill: rgb(0, 0, 0);">
            <g>
                <rect x="15" y="15" style="fill:none;" width="70" height="70"/>
                <path d="M85,0H15H0v15v70v15h15h70h15V85V15V0H85z M85,85H15V15h70V85z"/>
            </g>
            </g></g><g transform="translate(720,0) scale(2.8, 2.8)"><g transform="" style="fill: rgb(0, 0, 0);">
            <g>
                <rect x="15" y="15" style="fill:none;" width="70" height="70"/>
                <path d="M85,0H15H0v15v70v15h15h70h15V85V15V0H85z M85,85H15V15h70V85z"/>
            </g>
            </g></g><g transform="translate(0,720) scale(2.8, 2.8)"><g transform="" style="fill: rgb(0, 0, 0);">
            <g>
                <rect x="15" y="15" style="fill:none;" width="70" height="70"/>
                <path d="M85,0H15H0v15v70v15h15h70h15V85V15V0H85z M85,85H15V15h70V85z"/>
            </g>
            </g></g><g transform="translate(80,80) scale(1.2, 1.2)"><g transform="" style="fill: rgb(0, 0, 0);">
            <rect width="100" height="100"/>
            </g></g><g transform="translate(800,80) scale(1.2, 1.2)"><g transform="" style="fill: rgb(0, 0, 0);">
            <rect width="100" height="100"/>
            </g></g><g transform="translate(80,800) scale(1.2, 1.2)"><g transform="" style="fill: rgb(0, 0, 0);">
            <rect width="100" height="100"/>
            </g></g></g>
    </g>
    <g>
        <circle fill="red" cx="384" cy="384" r="128" />
        <path fill="white" d="M305 357 l54 0 l0 -54 l54 0 l0 54 l54 0 l0 54 l-54 0 l0 54 l-54 0 l0 -54 l-54 0" />
    </g>
</svg>
